<svg height="128" viewBox="0 0 128 128" width="128" xmlns="http://www.w3.org/2000/svg">
<defs>
<circle id="dot" r="5.1200004" shape-rendering="geometricPrecision"/>
<rect fill-opacity="0.5" height="25.6" id="verticalLine" width="5.1200004"/>
<rect fill-opacity="0.5" height="5.1200004" id="horizontalLine" width="25.6"/>
</defs>
<rect fill="white" height="128" width="128"/>
<path d="M13.5,0 V128 M38.5,0 V128 M64.5,0 V128 M90.5,0 V128 M115.5,0 V128 M0,13.5 H128 M0,38.5 H128 M0,64.5 H128 M0,90.5 H128 M0,115.5 H128" fill="none" shape-rendering="crispEdges" stroke="black" stroke-width="1"/>
<use fill="black" href="#dot" x="38.5" y="64.5"/>
<use fill="black" href="#dot" x="90.5" y="64.5"/>
<use fill="red" href="#dot" x="38.5" y="38.5"/>
<use fill="red" href="#dot" x="90.5" y="38.5"/>
<use fill="red" href="#dot" x="13.5" y="64.5"/>
<use fill="red" href="#dot" x="115.5" y="64.5"/>
<use fill="red" href="#dot" x="38.5" y="90.5"/>
<use fill="red" href="#dot" x="90.5" y="90.5"/>
<use fill="red" href="#dot" x="64.5" y="64.5"/>
<path d="M38.5,38.5 L42.120388,34.879612 L68.120384,60.879612 L64.5,64.5 z" fill="red" fill-opacity="0.5" shape-rendering="crispEdges"/>
<path d="M90.5,38.5 L94.120384,34.879612 L119.120384,60.879612 L115.5,64.5 z" fill="red" fill-opacity="0.5" shape-rendering="crispEdges"/>
<path d="M13.5,64.5 L9.879613,68.120384 L34.879612,94.120384 L38.5,90.5 z" fill="red" fill-opacity="0.5" shape-rendering="crispEdges"/>
<path d="M13.5,64.5 L9.879613,60.879612 L34.879612,34.879612 L38.5,38.5 z" fill="red" fill-opacity="0.5" shape-rendering="crispEdges"/>
<path d="M38.5,90.5 L42.120388,94.120384 L68.120384,68.120384 L64.5,64.5 z" fill="red" fill-opacity="0.5" shape-rendering="crispEdges"/>
<path d="M90.5,90.5 L94.120384,94.120384 L119.120384,68.120384 L115.5,64.5 z" fill="red" fill-opacity="0.5" shape-rendering="crispEdges"/>
<path d="M64.5,64.5 L60.879612,68.120384 L86.879616,94.120384 L90.5,90.5 z" fill="red" fill-opacity="0.5" shape-rendering="crispEdges"/>
<path d="M64.5,64.5 L60.879612,60.879612 L86.879616,34.879612 L90.5,38.5 z" fill="red" fill-opacity="0.5" shape-rendering="crispEdges"/>
<path d="M64.5,64.5 L38.5,38.5 L13.5,64.5 L38.5,90.5 L64.5,64.5 L90.5,90.5 L115.5,64.5 L90.5,38.5" fill="red" fill-opacity="0.5" shape-rendering="crispEdges"/>
<circle cx="64.5" cy="64.5" fill="none" r="7.6800003" shape-rendering="geometricPrecision" stroke="red" stroke-width="2"/>
<g fill-opacity="0" pointer-events="bounding-box">
<circle cx="13.5" cy="13.5" fill="black" r="5.1200004" shape-rendering="geometricPrecision"/>
<rect fill-opacity="0" height="25.6" shape-rendering="crispEdges" width="25.6" x="0" y="0"/>
<animate attributeName="fill-opacity" begin="mouseover" dur="100ms" fill="freeze" repeatCount="1" values="0;0.5"/>
<animate attributeName="fill-opacity" begin="mouseout" dur="100ms" fill="freeze" repeatCount="1" values="0.5;0"/>
</g>
<g fill-opacity="0" pointer-events="bounding-box">
<circle cx="38.5" cy="13.5" fill="black" r="5.1200004" shape-rendering="geometricPrecision"/>
<rect fill-opacity="0" height="25.6" shape-rendering="crispEdges" width="25.6" x="25.6" y="0"/>
<animate attributeName="fill-opacity" begin="mouseover" dur="100ms" fill="freeze" repeatCount="1" values="0;0.5"/>
<animate attributeName="fill-opacity" begin="mouseout" dur="100ms" fill="freeze" repeatCount="1" values="0.5;0"/>
</g>
<g fill-opacity="0" pointer-events="bounding-box">
<circle cx="64.5" cy="13.5" fill="black" r="5.1200004" shape-rendering="geometricPrecision"/>
<rect fill-opacity="0" height="25.6" shape-rendering="crispEdges" width="25.6" x="51.2" y="0"/>
<animate attributeName="fill-opacity" begin="mouseover" dur="100ms" fill="freeze" repeatCount="1" values="0;0.5"/>
<animate attributeName="fill-opacity" begin="mouseout" dur="100ms" fill="freeze" repeatCount="1" values="0.5;0"/>
</g>
<g fill-opacity="0" pointer-events="bounding-box">
<circle cx="90.5" cy="13.5" fill="black" r="5.1200004" shape-rendering="geometricPrecision"/>
<rect fill-opacity="0" height="25.6" shape-rendering="crispEdges" width="25.6" x="76.8" y="0"/>
<animate attributeName="fill-opacity" begin="mouseover" dur="100ms" fill="freeze" repeatCount="1" values="0;0.5"/>
<animate attributeName="fill-opacity" begin="mouseout" dur="100ms" fill="freeze" repeatCount="1" values="0.5;0"/>
</g>
<g fill-opacity="0" pointer-events="bounding-box">
<circle cx="115.5" cy="13.5" fill="black" r="5.1200004" shape-rendering="geometricPrecision"/>
<rect fill-opacity="0" height="25.6" shape-rendering="crispEdges" width="25.6" x="102.4" y="0"/>
<animate attributeName="fill-opacity" begin="mouseover" dur="100ms" fill="freeze" repeatCount="1" values="0;0.5"/>
<animate attributeName="fill-opacity" begin="mouseout" dur="100ms" fill="freeze" repeatCount="1" values="0.5;0"/>
</g>
<g fill-opacity="0" pointer-events="bounding-box">
<circle cx="13.5" cy="38.5" fill="black" r="5.1200004" shape-rendering="geometricPrecision"/>
<rect fill-opacity="0" height="25.6" shape-rendering="crispEdges" width="25.6" x="0" y="25.6"/>
<animate attributeName="fill-opacity" begin="mouseover" dur="100ms" fill="freeze" repeatCount="1" values="0;0.5"/>
<animate attributeName="fill-opacity" begin="mouseout" dur="100ms" fill="freeze" repeatCount="1" values="0.5;0"/>
</g>
<g fill-opacity="0" pointer-events="bounding-box">
<circle cx="64.5" cy="38.5" fill="black" r="5.1200004" shape-rendering="geometricPrecision"/>
<rect fill-opacity="0" height="25.6" shape-rendering="crispEdges" width="25.6" x="51.2" y="25.6"/>
<animate attributeName="fill-opacity" begin="mouseover" dur="100ms" fill="freeze" repeatCount="1" values="0;0.5"/>
<animate attributeName="fill-opacity" begin="mouseout" dur="100ms" fill="freeze" repeatCount="1" values="0.5;0"/>
</g>
<g fill-opacity="0" pointer-events="bounding-box">
<circle cx="115.5" cy="38.5" fill="black" r="5.1200004" shape-rendering="geometricPrecision"/>
<rect fill-opacity="0" height="25.6" shape-rendering="crispEdges" width="25.6" x="102.4" y="25.6"/>
<animate attributeName="fill-opacity" begin="mouseover" dur="100ms" fill="freeze" repeatCount="1" values="0;0.5"/>
<animate attributeName="fill-opacity" begin="mouseout" dur="100ms" fill="freeze" repeatCount="1" values="0.5;0"/>
</g>
<g fill-opacity="0" pointer-events="bounding-box">
<circle cx="13.5" cy="90.5" fill="black" r="5.1200004" shape-rendering="geometricPrecision"/>
<rect fill-opacity="0" height="25.6" shape-rendering="crispEdges" width="25.6" x="0" y="76.8"/>
<animate attributeName="fill-opacity" begin="mouseover" dur="100ms" fill="freeze" repeatCount="1" values="0;0.5"/>
<animate attributeName="fill-opacity" begin="mouseout" dur="100ms" fill="freeze" repeatCount="1" values="0.5;0"/>
</g>
<g fill-opacity="0" pointer-events="bounding-box">
<circle cx="64.5" cy="90.5" fill="black" r="5.1200004" shape-rendering="geometricPrecision"/>
<rect fill-opacity="0" height="25.6" shape-rendering="crispEdges" width="25.6" x="51.2" y="76.8"/>
<animate attributeName="fill-opacity" begin="mouseover" dur="100ms" fill="freeze" repeatCount="1" values="0;0.5"/>
<animate attributeName="fill-opacity" begin="mouseout" dur="100ms" fill="freeze" repeatCount="1" values="0.5;0"/>
</g>
<g fill-opacity="0" pointer-events="bounding-box">
<circle cx="115.5" cy="90.5" fill="black" r="5.1200004" shape-rendering="geometricPrecision"/>
<rect fill-opacity="0" height="25.6" shape-rendering="crispEdges" width="25.6" x="102.4" y="76.8"/>
<animate attributeName="fill-opacity" begin="mouseover" dur="100ms" fill="freeze" repeatCount="1" values="0;0.5"/>
<animate attributeName="fill-opacity" begin="mouseout" dur="100ms" fill="freeze" repeatCount="1" values="0.5;0"/>
</g>
<g fill-opacity="0" pointer-events="bounding-box">
<circle cx="13.5" cy="115.5" fill="black" r="5.1200004" shape-rendering="geometricPrecision"/>
<rect fill-opacity="0" height="25.6" shape-rendering="crispEdges" width="25.6" x="0" y="102.4"/>
<animate attributeName="fill-opacity" begin="mouseover" dur="100ms" fill="freeze" repeatCount="1" values="0;0.5"/>
<animate attributeName="fill-opacity" begin="mouseout" dur="100ms" fill="freeze" repeatCount="1" values="0.5;0"/>
</g>
<g fill-opacity="0" pointer-events="bounding-box">
<circle cx="38.5" cy="115.5" fill="black" r="5.1200004" shape-rendering="geometricPrecision"/>
<rect fill-opacity="0" height="25.6" shape-rendering="crispEdges" width="25.6" x="25.6" y="102.4"/>
<animate attributeName="fill-opacity" begin="mouseover" dur="100ms" fill="freeze" repeatCount="1" values="0;0.5"/>
<animate attributeName="fill-opacity" begin="mouseout" dur="100ms" fill="freeze" repeatCount="1" values="0.5;0"/>
</g>
<g fill-opacity="0" pointer-events="bounding-box">
<circle cx="64.5" cy="115.5" fill="black" r="5.1200004" shape-rendering="geometricPrecision"/>
<rect fill-opacity="0" height="25.6" shape-rendering="crispEdges" width="25.6" x="51.2" y="102.4"/>
<animate attributeName="fill-opacity" begin="mouseover" dur="100ms" fill="freeze" repeatCount="1" values="0;0.5"/>
<animate attributeName="fill-opacity" begin="mouseout" dur="100ms" fill="freeze" repeatCount="1" values="0.5;0"/>
</g>
<g fill-opacity="0" pointer-events="bounding-box">
<circle cx="90.5" cy="115.5" fill="black" r="5.1200004" shape-rendering="geometricPrecision"/>
<rect fill-opacity="0" height="25.6" shape-rendering="crispEdges" width="25.6" x="76.8" y="102.4"/>
<animate attributeName="fill-opacity" begin="mouseover" dur="100ms" fill="freeze" repeatCount="1" values="0;0.5"/>
<animate attributeName="fill-opacity" begin="mouseout" dur="100ms" fill="freeze" repeatCount="1" values="0.5;0"/>
</g>
<g fill-opacity="0" pointer-events="bounding-box">
<circle cx="115.5" cy="115.5" fill="black" r="5.1200004" shape-rendering="geometricPrecision"/>
<rect fill-opacity="0" height="25.6" shape-rendering="crispEdges" width="25.6" x="102.4" y="102.4"/>
<animate attributeName="fill-opacity" begin="mouseover" dur="100ms" fill="freeze" repeatCount="1" values="0;0.5"/>
<animate attributeName="fill-opacity" begin="mouseout" dur="100ms" fill="freeze" repeatCount="1" values="0.5;0"/>
</g>
</svg>
